<svg xmlns="http://www.w3.org/2000/svg" id="Layer_1" viewBox="0 0 591.79 174.1"><path d="M64.86,8.28c6.42,5.52,9.64,13.41,9.64,23.66h-22.85c0-4.33-1.14-7.76-3.41-10.29-2.27-2.52-5.5-3.79-9.69-3.79-4.84,0-8.39,1.52-10.67,4.55-2.27,3.03-3.41,7.26-3.41,12.67v6.93c0,5.34,1.14,9.55,3.41,12.62s5.76,4.6,10.45,4.6,8.12-1.19,10.5-3.57,3.57-5.74,3.57-10.07h22.09c0,10.18-3.12,17.98-9.37,23.39-6.25,5.41-15.07,8.12-26.48,8.12-12.7,0-22.33-3.25-28.86-9.75C3.27,60.86,0,51.25,0,38.55S3.27,16.24,9.8,9.75C16.33,3.25,25.96,0,38.66,0c11.05,0,19.78,2.76,26.21,8.28Z" fill="#fff"></path><path d="M88.47,75.8V1.3h23.93v74.5h-23.93Z" fill="#fff"></path><path d="M172.39,20.36v55.44h-23.93V20.36h-24.47V1.3h72.77v19.06h-24.36,0Z" fill="#fff"></path><path d="M253.93,75.8h-23.93v-28.91L200.44,1.3h27.5l14.29,24.8h.43l14.29-24.8h26.1l-29.13,45.59v28.91Z" fill="#fff"></path><path d="M347.93,75.8l-9.64-45.37h-.43l-9.64,45.37h-26.31L284.47,1.3h24.91l8.55,42.23h.43l8.45-42.23h23.61l8.99,42.23h.43l8.01-42.23h23.82l-17.43,74.5h-26.31,0Z" fill="#fff"></path><path d="M401.31,75.8V1.3h23.93v74.5h-23.93Z" fill="#fff"></path><path d="M513.71,38.55c0,24.83-13.03,37.25-39.09,37.25h-32.27V1.3h32.27c26.06,0,39.09,12.42,39.09,37.25ZM466.29,57.93h7.9c10.04,0,15.05-5.38,15.05-16.13v-6.5c0-10.75-5.01-16.13-15.05-16.13h-7.9v38.77Z" fill="#fff"></path><path d="M526.6,1.3h64.43v17.87h-40.5v10.29h34.65v17.11h-34.65v11.37h41.26v17.87h-65.19V1.3Z" fill="#fff"></path><path d="M62.5,166.7c-5.93,4.93-14.37,7.4-25.3,7.4s-19.38-2.47-25.35-7.4c-5.97-4.93-8.95-12.1-8.95-21.5v-41.1h22.1v40.8c0,3.87,1.03,6.95,3.1,9.25s5.07,3.45,9,3.45,6.95-1.17,9.05-3.5,3.15-5.4,3.15-9.2v-40.8h22.1v41.1c0,9.4-2.97,16.57-8.9,21.5h0Z" fill="#fff"></path><path d="M135.4,172.9l-28.9-33.4v33.4h-20.3v-68.8h19.3l28.9,33.9v-33.9h20.3v68.8h-19.3Z" fill="#fff"></path><path d="M170.5,172.9v-68.8h22.1v68.8h-22.1Z" fill="#fff"></path><path d="M208.4,104.1h55.6v16.5h-33.5v11.8h28.8v15.8h-28.8v24.7h-22.1v-68.8h0Z" fill="#fff"></path><path d="M336.8,112c6.47,6.07,9.7,14.9,9.7,26.5s-3.23,20.43-9.7,26.5-15.63,9.1-27.5,9.1-21.02-3.02-27.45-9.05c-6.43-6.03-9.65-14.88-9.65-26.55s3.22-20.52,9.65-26.55,15.58-9.05,27.45-9.05,21.03,3.03,27.5,9.1ZM298.5,123.7c-2.47,2.87-3.7,6.73-3.7,11.6v6.4c0,4.87,1.23,8.73,3.7,11.6,2.47,2.87,6.07,4.3,10.8,4.3s8.35-1.43,10.85-4.3c2.5-2.87,3.75-6.73,3.75-11.6v-6.4c0-4.87-1.25-8.73-3.75-11.6s-6.12-4.3-10.85-4.3-8.33,1.43-10.8,4.3Z" fill="#fff"></path><path d="M420.3,136.6c-2.27,3.4-5.57,5.9-9.9,7.5l15.3,28.8h-24.8l-12.2-25.1h-8.2v25.1h-22.1v-68.8h42.1c4.93,0,9.15.95,12.65,2.85s6.13,4.47,7.9,7.7c1.77,3.23,2.65,6.75,2.65,10.55,0,4.2-1.13,8-3.4,11.4h0ZM399.4,121.6c-1.2-1.2-2.67-1.8-4.4-1.8h-14.5v12.7h14.5c1.73,0,3.2-.62,4.4-1.85,1.2-1.23,1.8-2.75,1.8-4.55s-.6-3.3-1.8-4.5Z" fill="#fff"></path><path d="M495.3,172.9v-24.8c0-3.07.12-6.22.35-9.45s.48-5.95.75-8.15c.27-2.2.43-3.6.5-4.2h-.4l-12.7,46.6h-17.3l-12.8-46.5h-.4c.07.6.25,1.98.55,4.15s.58,4.87.85,8.1c.27,3.23.4,6.38.4,9.45v24.8h-20.3v-68.8h31.2l10.4,39.7h.4l10.3-39.7h30.1v68.8h-21.9Z" fill="#fff"></path><path d="M581.19,108.25c5.67,3.57,8.57,8.85,8.7,15.85v1.2h-20.7v-.4c0-2-.73-3.67-2.2-5-1.47-1.33-3.7-2-6.7-2s-5.18.43-6.75,1.3-2.35,1.93-2.35,3.2c0,1.8,1.07,3.13,3.2,4s5.57,1.77,10.3,2.7c5.53,1.13,10.08,2.32,13.65,3.55s6.68,3.25,9.35,6.05c2.67,2.8,4.03,6.6,4.1,11.4,0,8.13-2.75,14.17-8.25,18.1-5.5,3.93-12.85,5.9-22.05,5.9-10.73,0-19.08-1.8-25.05-5.4-5.97-3.6-8.95-9.97-8.95-19.1h20.9c0,3.47.9,5.78,2.7,6.95s4.6,1.75,8.4,1.75c2.8,0,5.12-.3,6.95-.9,1.83-.6,2.75-1.83,2.75-3.7,0-1.67-1.02-2.92-3.05-3.75-2.03-.83-5.35-1.72-9.95-2.65-5.6-1.2-10.23-2.45-13.9-3.75-3.67-1.3-6.87-3.45-9.6-6.45s-4.1-7.07-4.1-12.2c0-7.53,2.92-13.08,8.75-16.65s13.21-5.35,22.15-5.35,16.03,1.78,21.7,5.35h0Z" fill="#fff"></path></svg>